<svg width="18" height="18" viewBox="0 0 18 18" fill="none" xmlns="http://www.w3.org/2000/svg">
<g clip-path="url(#clip0_175_532)">
<path d="M10.1251 5.34375C10.1251 5.11997 10.214 4.90536 10.3722 4.74713C10.5304 4.58889 10.7451 4.5 10.9688 4.5H15.4688C15.6356 4.50014 15.7986 4.54971 15.9372 4.64243C16.0758 4.73515 16.1839 4.86687 16.2477 5.02096C16.3115 5.17504 16.3282 5.34458 16.2957 5.50815C16.2632 5.67172 16.1829 5.822 16.0651 5.94L13.9388 8.0685C14.2898 8.154 14.6183 8.271 14.9142 8.42737C15.749 8.86725 16.3137 9.62325 16.3137 10.683C16.3137 11.4176 16.0538 12.042 15.6061 12.5134C15.1718 12.9724 14.6003 13.248 14.0221 13.3875C12.8858 13.6609 11.519 13.4584 10.5076 12.7946C10.3346 12.6661 10.2173 12.4764 10.1797 12.2642C10.142 12.0521 10.1868 11.8335 10.3049 11.6533C10.423 11.4731 10.6056 11.3448 10.8151 11.2948C11.0247 11.2447 11.2455 11.2766 11.4323 11.3839C12.0331 11.7776 12.9173 11.9171 13.6272 11.7461C13.9715 11.664 14.2235 11.52 14.381 11.3535C14.5261 11.2005 14.6262 10.9935 14.6262 10.683C14.6262 10.3365 14.4878 10.1104 14.1267 9.92025C13.7071 9.69862 13.0242 9.5625 12.095 9.5625C11.9282 9.56235 11.7652 9.51279 11.6266 9.42006C11.488 9.32734 11.3799 9.19562 11.3161 9.04154C11.2523 8.88745 11.2356 8.71792 11.2681 8.55434C11.3006 8.39077 11.3809 8.24049 11.4987 8.1225L13.4337 6.1875H10.9688C10.7451 6.1875 10.5304 6.0986 10.3722 5.94037C10.214 5.78213 10.1251 5.56752 10.1251 5.34375ZM6.08971 11.8271C5.69596 11.7709 5.22346 11.9542 4.98383 12.4706C4.93864 12.5734 4.8734 12.6661 4.79191 12.7434C4.71042 12.8206 4.61434 12.8808 4.50929 12.9205C4.40423 12.9601 4.29233 12.9784 4.18012 12.9742C4.06792 12.9701 3.95767 12.9435 3.85585 12.8962C3.75402 12.8489 3.66267 12.7817 3.58713 12.6987C3.5116 12.6156 3.45341 12.5183 3.41597 12.4124C3.37853 12.3066 3.36259 12.1943 3.36909 12.0822C3.37559 11.9701 3.4044 11.8604 3.45383 11.7596C4.02533 10.5289 5.24146 9.999 6.33158 10.1565C7.45658 10.3196 8.43758 11.2196 8.43758 12.6562C8.43758 14.2684 7.21358 15.1222 6.42383 15.6724C6.07733 15.9154 5.78146 16.119 5.55533 16.317H7.87508C8.09886 16.317 8.31347 16.4059 8.4717 16.5641C8.62994 16.7224 8.71883 16.937 8.71883 17.1607C8.71883 17.3845 8.62994 17.5991 8.4717 17.7574C8.31347 17.9156 8.09886 18.0045 7.87508 18.0045H4.21883C3.99506 18.0045 3.78044 17.9156 3.62221 17.7574C3.46398 17.5991 3.37508 17.3845 3.37508 17.1607C3.37508 16.3845 3.71258 15.7984 4.12883 15.3495C4.52033 14.931 5.02883 14.589 5.42258 14.3145C6.32258 13.6845 6.75008 13.2975 6.75008 12.6562C6.75008 12.1241 6.44971 11.88 6.08971 11.8271ZM6.30458 0.100122C6.43916 0.172176 6.55168 0.279393 6.63013 0.410348C6.70859 0.541303 6.75004 0.69109 6.75008 0.843747V6.21H7.54996C7.77373 6.21 7.98834 6.29889 8.14658 6.45713C8.30481 6.61536 8.39371 6.82997 8.39371 7.05375C8.39371 7.27752 8.30481 7.49213 8.14658 7.65037C7.98834 7.8086 7.77373 7.8975 7.54996 7.8975H4.22896C4.00518 7.8975 3.79057 7.8086 3.63234 7.65037C3.4741 7.49213 3.38521 7.27752 3.38521 7.05375C3.38521 6.82997 3.4741 6.61536 3.63234 6.45713C3.79057 6.29889 4.00518 6.21 4.22896 6.21H5.06258V2.41875L4.68683 2.66962C4.50063 2.79082 4.27414 2.83369 4.05653 2.78892C3.83892 2.74415 3.64775 2.61536 3.52451 2.4305C3.40127 2.24565 3.35592 2.01965 3.39829 1.80155C3.44066 1.58346 3.56734 1.39088 3.75083 1.26562L5.43833 0.140622C5.56543 0.0559301 5.71314 0.00732675 5.8657 -3.96144e-06C6.01826 -0.00733468 6.16994 0.0268822 6.30458 0.0989972V0.100122Z" fill="black"/>
</g>
<defs>
<clipPath id="clip0_175_532">
<rect width="18" height="18" fill="white"/>
</clipPath>
</defs>
</svg>
