<svg width="25" height="26" viewBox="0 0 25 26" fill="none" xmlns="http://www.w3.org/2000/svg">
<g clip-path="url(#clip0_246_963)">
<path d="M10.4199 22.1869V16.0623H9.39918C9.10996 16.0623 8.8677 15.9643 8.6724 15.7683C8.47709 15.5723 8.3791 15.3301 8.37842 15.0415V9.93771C8.37842 9.37629 8.57849 8.89585 8.97863 8.49639C9.37877 8.09693 9.8592 7.89686 10.4199 7.89618H14.503C15.0644 7.89618 15.5452 8.09625 15.9453 8.49639C16.3455 8.89653 16.5452 9.37697 16.5445 9.93771V15.0415C16.5445 15.3307 16.4465 15.5733 16.2505 15.7693C16.0546 15.9653 15.8123 16.063 15.5238 16.0623H14.503V22.1869C14.503 22.4761 14.405 22.7187 14.209 22.9147C14.013 23.1107 13.7708 23.2083 13.4822 23.2076H11.4407C11.1515 23.2076 10.9092 23.1096 10.7139 22.9136C10.5186 22.7177 10.4206 22.4754 10.4199 22.1869ZM12.4615 6.87542C11.9001 6.87542 11.4196 6.67569 11.0202 6.27623C10.6207 5.87677 10.4206 5.39599 10.4199 4.83389C10.4193 4.27179 10.6193 3.79135 11.0202 3.39257C11.421 2.9938 11.9014 2.79373 12.4615 2.79237C13.0215 2.791 13.5023 2.99107 13.9038 3.39257C14.3053 3.79407 14.505 4.27451 14.503 4.83389C14.501 5.39327 14.3012 5.87405 13.9038 6.27623C13.5064 6.67841 13.0256 6.87814 12.4615 6.87542Z" fill="black"/>
</g>
<defs>
<clipPath id="clip0_246_963">
<rect width="24.4983" height="24.4983" fill="white" transform="translate(0.212402 0.750854)"/>
</clipPath>
</defs>
</svg>
