<svg width="24" height="25" viewBox="0 0 24 25" fill="none" xmlns="http://www.w3.org/2000/svg">
<g clip-path="url(#clip0_92_624)">
<path d="M16 17.5V19.5H2V17.5C2 17.5 2 13.5 9 13.5C16 13.5 16 17.5 16 17.5ZM12.5 8.00001C12.5 7.30777 12.2947 6.63108 11.9101 6.05551C11.5256 5.47994 10.9789 5.03133 10.3394 4.76643C9.69985 4.50152 8.99612 4.43221 8.31718 4.56726C7.63825 4.70231 7.01461 5.03565 6.52513 5.52513C6.03564 6.01462 5.7023 6.63826 5.56725 7.31719C5.4322 7.99612 5.50152 8.69986 5.76642 9.3394C6.03133 9.97894 6.47993 10.5256 7.0555 10.9102C7.63108 11.2947 8.30777 11.5 9 11.5C9.92826 11.5 10.8185 11.1313 11.4749 10.4749C12.1313 9.8185 12.5 8.92826 12.5 8.00001ZM15.94 13.5C16.5547 13.9758 17.0578 14.5804 17.4137 15.2715C17.7696 15.9626 17.9697 16.7233 18 17.5V19.5H22V17.5C22 17.5 22 13.87 15.94 13.5ZM15 4.50001C14.3118 4.49681 13.6388 4.70254 13.07 5.09001C13.6774 5.93874 14.0041 6.95629 14.0041 8.00001C14.0041 9.04372 13.6774 10.0613 13.07 10.91C13.6388 11.2975 14.3118 11.5032 15 11.5C15.9283 11.5 16.8185 11.1313 17.4749 10.4749C18.1313 9.8185 18.5 8.92826 18.5 8.00001C18.5 7.07175 18.1313 6.18151 17.4749 5.52513C16.8185 4.86876 15.9283 4.50001 15 4.50001Z" fill="black"/>
</g>
<defs>
<clipPath id="clip0_92_624">
<rect width="24" height="24" fill="white" transform="translate(0 0.5)"/>
</clipPath>
</defs>
</svg>
