<svg width="25" height="26" viewBox="0 0 25 26" fill="none" xmlns="http://www.w3.org/2000/svg">
<g clip-path="url(#clip0_246_953)">
<path d="M10.5811 22.1869V17.083H9.0244C8.66714 17.083 8.38643 16.9344 8.18227 16.637C7.97812 16.3396 7.94409 16.0204 8.0802 15.6795L10.6321 9.22317C10.8022 8.81487 11.0659 8.49163 11.4232 8.25345C11.7805 8.01527 12.1803 7.89618 12.6226 7.89618C13.0649 7.89618 13.4647 8.01527 13.822 8.25345C14.1793 8.49163 14.443 8.81487 14.6131 9.22317L17.165 15.6795C17.3011 16.0198 17.2671 16.3389 17.0629 16.637C16.8588 16.935 16.578 17.0837 16.2208 17.083H14.6641V22.1869C14.6641 22.4761 14.5661 22.7187 14.3701 22.9147C14.1742 23.1107 13.9319 23.2083 13.6434 23.2076H11.6018C11.3126 23.2076 11.0704 23.1096 10.875 22.9136C10.6797 22.7177 10.5817 22.4754 10.5811 22.1869ZM12.6226 6.87542C12.0612 6.87542 11.5807 6.67569 11.1813 6.27623C10.7818 5.87677 10.5817 5.39599 10.5811 4.83389C10.5804 4.27179 10.7805 3.79135 11.1813 3.39257C11.5821 2.9938 12.0625 2.79373 12.6226 2.79237C13.1827 2.791 13.6634 2.99107 14.0649 3.39257C14.4664 3.79407 14.6662 4.27451 14.6641 4.83389C14.6621 5.39327 14.4623 5.87405 14.0649 6.27623C13.6675 6.67841 13.1867 6.87814 12.6226 6.87542Z" fill="black"/>
</g>
<defs>
<clipPath id="clip0_246_953">
<rect width="24.4983" height="24.4983" fill="white" transform="translate(0.373535 0.750854)"/>
</clipPath>
</defs>
</svg>
