<svg width="25" height="24" viewBox="0 0 25 24" fill="none" xmlns="http://www.w3.org/2000/svg">
<path d="M19.1 13.125C19.4117 13.125 19.6731 13.017 19.8843 12.801C20.0955 12.585 20.2007 12.318 20.2 12C20.1993 11.682 20.0937 11.415 19.8832 11.199C19.6727 10.983 19.4117 10.875 19.1 10.875H15.8C15.4883 10.875 15.2273 10.983 15.0168 11.199C14.8063 11.415 14.7007 11.682 14.7 12C14.6993 12.318 14.8049 12.5854 15.0168 12.8021C15.2287 13.0189 15.4898 13.1265 15.8 13.125H19.1ZM19.1 9.75C19.4117 9.75 19.6731 9.642 19.8843 9.426C20.0955 9.21 20.2007 8.943 20.2 8.625C20.1993 8.307 20.0937 8.04 19.8832 7.824C19.6727 7.608 19.4117 7.5 19.1 7.5H15.8C15.4883 7.5 15.2273 7.608 15.0168 7.824C14.8063 8.04 14.7007 8.307 14.7 8.625C14.6993 8.943 14.8049 9.21037 15.0168 9.42712C15.2287 9.64387 15.4898 9.7515 15.8 9.75H19.1ZM9.2 13.125C8.54 13.125 7.94417 13.1861 7.4125 13.3084C6.88083 13.4306 6.41333 13.6226 6.01 13.8844C5.625 14.1281 5.33167 14.4049 5.13 14.7146C4.92833 15.0244 4.8275 15.357 4.8275 15.7125C4.8275 15.9375 4.91 16.125 5.075 16.275C5.24 16.425 5.44167 16.5 5.68 16.5H12.72C12.9583 16.5 13.16 16.4201 13.325 16.2604C13.49 16.1006 13.5725 15.8992 13.5725 15.6562C13.5725 15.3375 13.4717 15.0281 13.27 14.7281C13.0683 14.4281 12.775 14.1469 12.39 13.8844C11.9867 13.6219 11.5192 13.4295 10.9875 13.3072C10.4558 13.185 9.86 13.1242 9.2 13.125ZM9.2 12C9.805 12 10.3227 11.7799 10.7532 11.3396C11.1837 10.8994 11.3993 10.3695 11.4 9.75C11.4007 9.1305 11.1855 8.601 10.7543 8.1615C10.3231 7.722 9.805 7.5015 9.2 7.5C8.595 7.4985 8.07727 7.719 7.6468 8.1615C7.21633 8.604 7.00073 9.1335 7 9.75C6.99927 10.3665 7.21487 10.8964 7.6468 11.3396C8.07873 11.7829 8.59647 12.003 9.2 12ZM3.7 21C3.095 21 2.57727 20.7799 2.1468 20.3396C1.71633 19.8994 1.50073 19.3695 1.5 18.75V5.25C1.5 4.63125 1.7156 4.10175 2.1468 3.6615C2.578 3.22125 3.09573 3.00075 3.7 3H21.3C21.905 3 22.4231 3.2205 22.8543 3.6615C23.2855 4.1025 23.5007 4.632 23.5 5.25V18.75C23.5 19.3687 23.2848 19.8986 22.8543 20.3396C22.4238 20.7806 21.9057 21.0007 21.3 21H3.7Z" fill="black"/>
</svg>
