<svg width="86" height="155" viewBox="0 0 86 155" fill="none" xmlns="http://www.w3.org/2000/svg">
<g clip-path="url(#clip0_67_709)">
<path d="M43.0704 28.6474C50.9768 28.6474 57.3919 22.2313 57.3919 14.3237C57.3919 6.41612 50.9768 0 43.0704 0C35.1641 0 28.749 6.41612 28.749 14.3237C28.749 22.2313 35.1641 28.6474 43.0704 28.6474Z" fill="#26BFA3"/>
<path d="M84.5434 81.2146L66.6768 42.549C66.6768 42.549 66.6768 42.4927 66.6486 42.4927L66.4235 42.0425C66.2547 41.7611 66.0859 41.5078 65.889 41.2545C62.9628 36.9771 58.067 34.1349 52.5242 34.1349H33.6447C28.4676 34.1349 23.8813 36.6113 20.927 40.4103C20.4206 40.8887 19.9704 41.4234 19.6327 42.0425L1.45665 81.2146C-0.512897 84.6196 0.66883 89.0378 4.07333 91.0076C7.47783 92.9775 11.8952 91.7956 13.8648 88.3905L26.6668 59.6024V147.852C26.6668 151.792 29.9025 155.028 33.8416 155.028C37.7807 155.028 41.0164 151.792 41.0164 147.852V102.686H45.1806V147.852C45.1806 151.792 48.4163 155.028 52.3554 155.028C56.2945 155.028 59.5301 151.792 59.5301 147.852V59.8557L72.1915 88.3905C74.161 91.7956 78.5503 92.9775 81.983 91.0076C85.4156 89.0378 86.5692 84.6478 84.5996 81.2146H84.5434Z" fill="#26BFA3"/>
</g>
<defs>
<clipPath id="clip0_67_709">
<rect width="85" height="155" fill="white" transform="translate(0.5)"/>
</clipPath>
</defs>
</svg>
