<svg width="23" height="24" viewBox="0 0 23 24" fill="none" xmlns="http://www.w3.org/2000/svg">
<g clip-path="url(#clip0_175_523)">
<path d="M4.3125 3.375C4.3125 2.6125 4.6154 1.88124 5.15457 1.34207C5.69373 0.802901 6.425 0.5 7.1875 0.5L15.8125 0.5C16.575 0.5 17.3063 0.802901 17.8454 1.34207C18.3846 1.88124 18.6875 2.6125 18.6875 3.375V20.625C18.6875 21.3875 18.3846 22.1188 17.8454 22.6579C17.3063 23.1971 16.575 23.5 15.8125 23.5H7.1875C6.425 23.5 5.69373 23.1971 5.15457 22.6579C4.6154 22.1188 4.3125 21.3875 4.3125 20.625V3.375ZM12.9375 19.1875C12.9375 18.8063 12.786 18.4406 12.5165 18.171C12.2469 17.9015 11.8812 17.75 11.5 17.75C11.1188 17.75 10.7531 17.9015 10.4835 18.171C10.214 18.4406 10.0625 18.8063 10.0625 19.1875C10.0625 19.5687 10.214 19.9344 10.4835 20.204C10.7531 20.4735 11.1188 20.625 11.5 20.625C11.8812 20.625 12.2469 20.4735 12.5165 20.204C12.786 19.9344 12.9375 19.5687 12.9375 19.1875Z" fill="black"/>
</g>
<defs>
<clipPath id="clip0_175_523">
<rect width="23" height="23" fill="white" transform="translate(0 0.5)"/>
</clipPath>
</defs>
</svg>
