<svg width="138" height="131" viewBox="0 0 138 131" fill="none" xmlns="http://www.w3.org/2000/svg">
<g clip-path="url(#clip0_67_748)">
<path d="M39.4081 24.2071C46.0957 24.2071 51.4917 18.7799 51.4917 12.1179C51.4917 5.45594 46.067 0 39.4081 0C32.7492 0 27.3245 5.42723 27.3245 12.0892C27.3245 18.7512 32.7492 24.1784 39.4081 24.1784V24.2071Z" fill="#F27EA9"/>
<path d="M77.8688 68.6299L59.3272 35.923C59.3272 35.923 59.3272 35.8942 59.3272 35.8655L59.1263 35.4922C58.9827 35.2625 58.8392 35.0328 58.667 34.8318C56.1986 31.2136 52.0655 28.8015 47.3871 28.8015H31.4574C27.0946 28.8015 23.2199 30.8977 20.6941 34.0852C20.2635 34.4872 19.8904 34.9466 19.6034 35.4635L0.803462 68.6299C-0.861263 71.5014 0.143312 75.2344 3.01353 76.8999C5.88374 78.5654 9.61503 77.5604 11.2798 74.6888L21.2107 58.7518L13.5185 97.3741C13.0593 99.6713 14.6092 101.567 16.9628 101.567H25.5447V124.97C25.5447 128.301 28.2714 131.029 31.6009 131.029C34.9303 131.029 37.657 128.301 37.657 124.97V101.567H41.1874V124.97C41.1874 128.301 43.9141 131.029 47.2436 131.029C50.573 131.029 53.2997 128.301 53.2997 124.97V101.567H61.7669C64.1204 101.567 65.6703 99.6713 65.2111 97.3741L57.5189 58.7518L67.4499 74.6888C69.1146 77.5604 72.8172 78.5654 75.7161 76.8999C78.5863 75.2344 79.5909 71.5301 77.9262 68.6299H77.8688Z" fill="#F27EA9"/>
<path d="M102.524 24.6665C109.125 24.6665 114.493 19.2967 114.493 12.6921C114.493 6.08757 109.125 0.717773 102.524 0.717773C95.9225 0.717773 90.5552 6.08757 90.5552 12.6921C90.5552 19.2967 95.9225 24.6665 102.524 24.6665Z" fill="#AFD687"/>
<path d="M137.196 68.6011L122.271 36.2675C122.271 36.2675 122.271 36.2388 122.271 36.21L122.07 35.8367C121.927 35.607 121.783 35.3773 121.64 35.1763C119.2 31.5868 115.096 29.2322 110.475 29.2322H94.6883C90.383 29.2322 86.5369 31.2997 84.0398 34.4584C83.6093 34.8604 83.2649 35.3199 82.9491 35.8367L67.7944 68.6011C66.1584 71.4439 67.1343 75.1482 69.9758 76.785C72.8173 78.4218 76.5199 77.4455 78.1559 74.6026L88.8331 50.5391V124.309C88.8331 127.611 91.5311 130.311 94.8318 130.311C98.1326 130.311 100.831 127.611 100.831 124.309V86.5483H104.332V124.309C104.332 127.611 107.03 130.311 110.331 130.311C113.632 130.311 116.33 127.611 116.33 124.309V50.7401L126.921 74.5739C128.557 77.4167 132.231 78.4218 135.101 76.7563C137.942 75.1195 138.947 71.4439 137.282 68.5724L137.196 68.6011Z" fill="#AFD687"/>
<path d="M89.1775 64.8684C85.0444 64.8684 81.6863 61.5087 81.6863 57.3736C81.6863 53.2386 85.0444 49.8789 89.1775 49.8789C93.3107 49.8789 96.6688 53.2386 96.6688 57.3736C96.6688 61.5087 93.3107 64.8684 89.1775 64.8684Z" fill="#455D73"/>
<path d="M65.3261 92.3779L76.807 72.1335C76.807 72.1335 76.807 72.1335 76.807 72.1047L76.9218 71.875C77.0079 71.7314 77.094 71.5879 77.2088 71.473C78.73 69.2332 81.3132 67.74 84.2122 67.74H94.0857C96.7837 67.74 99.1947 69.0322 100.745 71.0136C101.003 71.272 101.233 71.5591 101.433 71.875L113.058 92.4066C114.091 94.1869 113.46 96.4842 111.68 97.5179C109.901 98.5517 107.604 97.92 106.571 96.1396L100.429 86.2902L105.193 110.21C105.48 111.646 104.533 112.795 103.069 112.795H97.7596V127.267C97.7596 129.335 96.0661 131 94.0283 131C91.9904 131 90.297 129.306 90.297 127.267V112.795H88.1156V127.267C88.1156 129.335 86.4222 131 84.3844 131C82.3465 131 80.6531 129.306 80.6531 127.267V112.795H75.4006C73.9368 112.795 72.9896 111.617 73.2766 110.21L78.0412 86.2902L71.8989 96.1396C70.8656 97.92 68.5695 98.5517 66.7899 97.5179C65.0104 96.4842 64.379 94.1869 65.4122 92.4066L65.3261 92.3779Z" fill="#455D73"/>
<path d="M50.0853 65.1556C45.9809 65.1556 42.6802 61.8246 42.6802 57.747C42.6802 53.6694 46.0096 50.3384 50.0853 50.3384C54.161 50.3384 57.4905 53.6694 57.4905 57.747C57.4905 61.8246 54.161 65.1556 50.0853 65.1556Z" fill="#455D73"/>
<path d="M28.6162 92.349L37.8583 72.3343C37.8583 72.3343 37.8583 72.3343 37.8583 72.3056L37.9731 72.0759C37.9731 72.0759 38.1453 71.7887 38.2601 71.6739C39.7813 69.4628 42.3071 67.9983 45.1773 67.9983H54.936C57.6053 67.9983 59.9876 69.2618 61.5375 71.2431C61.7959 71.4729 62.0255 71.76 62.1977 72.1046L71.5833 92.4064C72.5879 94.1868 71.9851 96.4553 70.2343 97.4604C68.4548 98.4654 66.1873 97.8624 65.1827 96.1107L58.5525 81.2074V126.894C58.5525 128.933 56.8878 130.598 54.8499 130.598C52.8121 130.598 51.1474 128.933 51.1474 126.894V103.519H48.9947V126.894C48.9947 128.933 47.33 130.598 45.2921 130.598C43.2543 130.598 41.5895 128.933 41.5895 126.894V81.351L35.0454 96.1107C34.0409 97.8911 31.7447 98.4941 29.9939 97.4604C28.2143 96.4553 27.6116 94.1581 28.6449 92.4064L28.6162 92.349Z" fill="#455D73"/>
</g>
<defs>
<clipPath id="clip0_67_748">
<rect width="138" height="131" fill="white"/>
</clipPath>
</defs>
</svg>
