<svg width="92" height="155" viewBox="0 0 92 155" fill="none" xmlns="http://www.w3.org/2000/svg">
<g clip-path="url(#clip0_67_734)">
<path d="M46.0551 28.6398C53.8638 28.6398 60.1878 22.2383 60.1878 14.3338C60.1878 6.42934 53.8913 0 46.0551 0C38.2188 0 31.9224 6.40151 31.9224 14.306C31.9224 22.2104 38.2463 28.612 46.0551 28.612V28.6398Z" fill="#F27EA9"/>
<path d="M91.0652 81.1878L69.3713 42.5004C69.3713 42.5004 69.3713 42.4448 69.3438 42.4448L69.1238 41.9994C68.9589 41.7211 68.7939 41.4706 68.6014 41.2201C65.7144 36.9339 60.8752 34.095 55.4036 34.095H36.7616C31.6749 34.095 27.1107 36.5721 24.1962 40.3573C23.7012 40.8305 23.2613 41.3593 22.9039 41.9994L0.934942 81.1878C-1.01724 84.6112 0.165068 89.0088 3.51952 90.9571C6.90147 92.9332 11.2458 91.7364 13.1704 88.3408L24.7736 69.4981L15.7825 115.199C15.2326 117.927 17.0473 120.154 19.7969 120.154H29.8327V147.819C29.8327 151.744 33.0222 154.972 36.8991 154.972C40.7759 154.972 43.9654 151.744 43.9654 147.819V120.154H48.0898V147.819C48.0898 151.744 51.2792 154.972 55.1561 154.972C59.033 154.972 62.2225 151.744 62.2225 147.819V120.154H72.1483C74.8979 120.154 76.7126 117.927 76.1627 115.199L67.1716 69.4981L78.7747 88.3408C80.7269 91.7642 85.0712 92.9332 88.4257 90.9571C91.8076 88.9809 92.9624 84.5834 91.0102 81.1878H91.0652Z" fill="#F27EA9"/>
</g>
<defs>
<clipPath id="clip0_67_734">
<rect width="92" height="155" fill="white"/>
</clipPath>
</defs>
</svg>
